<?xml version="1.0" standalone="no"?>
<!DOCTYPE svg PUBLIC "-//W3C//DTD SVG 20010904//EN"
 "http://www.w3.org/TR/2001/REC-SVG-20010904/DTD/svg10.dtd">
<svg version="1.0" xmlns="http://www.w3.org/2000/svg"
 width="1232.000000pt" height="1280.000000pt" viewBox="0 0 1232.000000 1280.000000"
 preserveAspectRatio="xMidYMid meet">
<metadata>
Created by potrace 1.15, written by Peter Selinger 2001-2017
</metadata>
<g transform="translate(0.000000,1280.000000) scale(0.100000,-0.100000)"
fill="#9e9e9e" stroke="none">
<path d="M5555 12749 c-1378 -81 -2618 -475 -3630 -1152 -687 -460 -1229
-1050 -1556 -1694 -188 -371 -299 -737 -351 -1163 -19 -155 -16 -573 6 -730
95 -696 365 -1291 857 -1885 113 -136 427 -448 579 -575 218 -181 499 -382
742 -530 49 -29 88 -57 88 -62 0 -5 5 -6 10 -3 6 3 10 2 10 -4 0 -15 412 -246
422 -235 9 9 76 -90 113 -167 158 -335 102 -843 -167 -1514 -176 -437 -368
-813 -903 -1765 -339 -603 -474 -852 -486 -893 -13 -44 14 -107 47 -107 42 0
75 20 142 83 46 44 58 52 40 27 -70 -96 -59 -194 21 -192 70 2 87 20 681 712
605 705 978 1121 1369 1530 812 849 1411 1339 1801 1471 111 38 119 38 595 25
1297 -36 2594 249 3670 808 578 300 1109 698 1493 1119 602 660 934 1373 1003
2157 14 167 6 531 -16 688 -111 793 -484 1508 -1119 2145 -137 137 -324 305
-364 326 -12 6 -62 44 -110 84 -1177 975 -2817 1515 -4569 1506 -158 -1 -346
-5 -418 -10z"/>
</g>
</svg>
